<?xml version="1.0" standalone="no"?><!DOCTYPE svg PUBLIC "-//W3C//DTD SVG 1.1//EN" "http://www.w3.org/Graphics/SVG/1.1/DTD/svg11.dtd"><svg t="1621527280717" class="icon" viewBox="0 0 1024 1024" version="1.1" xmlns="http://www.w3.org/2000/svg" p-id="2384" xmlns:xlink="http://www.w3.org/1999/xlink" width="200" height="200"><defs><style type="text/css"></style></defs><path d="M476.019531 862.823134c-136.15396 0-319.836399-35.511795-370.81649-71.708182l-10.763135-7.636934-2.62171-12.912078c-1.547239-7.652284-6.610558-36.47268 0.309038-58.405201l-0.113587-0.032746c9.134031-41.210587 30.366611-70.551846 61.401442-84.832084 32.613792-14.980179 67.328431-20.418029 100.918457-25.677822 34.470069-5.406127 67.034742-10.518564 97.56406-25.124214 14.540158-6.904247 17.943674-15.126512 17.99177-17.470907l0-13.628392c-12.912078-14.931061-24.667819-33.770128-33.607422-53.846372-2.914376-0.928139-5.812379-1.937119-8.629541-3.060709-44.906769-17.585517-70.665433-55.213509-70.665433-103.198383l0.179079-3.403516c1.937119-18.952654 8.727779-32.011064 16.282848-40.885176l0.12996-34.567283c0-7.55507 0.471744-15.435551 1.49812-24.488741-0.99363-102.725616 39.403428-143.692656 70.063729-159.959132 28.103058-41.992393 72.700789-64.332191 121.988332-59.95244 20.547988 1.726318 30.643927 5.307889 38.752606 8.17417 4.640694 1.677199 8.92323 3.191692 18.170848 4.819772 17.291828 3.044336 38.915311 4.412496 48.14758 4.982478 9.118682 0.553609 15.175631 0.928139 23.463388 4.640694l49.53109 22.926152-14.344706 22.681582c38.637995 29.584806 49.77566 87.974657 45.981241 140.680043 0.99363 8.515954 1.449002 16.120143 1.449002 23.73968l0.032746 46.958498c7.017834 9.069563 12.961196 21.998013 14.914688 40.331567l0.195451 3.517103c0.032746 47.088458-25.237801 84.554768-69.363787 102.791108-1.953492 0.814552-3.908006 1.562589-5.812379 2.263553-9.166777 18.448164-21.476127 39.257096-36.619012 55.881728-0.016373 2.947122-0.081864 6.268774-0.179079 10.30674 1.644453 3.778046 7.945973 12.944823 22.632463 20.971637 18.659989 10.209526 55.180763 16.575514 87.404676 22.193465 37.678134 6.594185 75.876108 13.286608 106.86182 27.256784 30.562063 15.826454 50.915623 44.336788 60.537771 83.301218 3.321652 10.453073 5.128811 26.215058 4.852518 50.605561l-0.179079 15.533788-12.016685 9.851369C807.172673 822.849724 610.627275 862.823134 476.019531 862.823134zM155.808602 743.293807c50.117444 22.697955 197.701734 52.836369 320.210929 52.836369 121.304763 0 271.770683-32.971949 320.210929-54.073546-0.407276-5.064342-0.911766-9.541307-1.269923-12.212136l-0.50449-2.13257c-3.370771-14.295588-10.485819-32.92283-25.188682-40.576137-21.655206-9.704013-55.669904-15.663748-88.543615-21.411659-39.827077-6.952342-80.304977-14.019295-108.636233-29.503964-39.191604-21.411659-57.069787-54.009078-57.395198-76.836993 0.341784-13.173021 0.260943-18.415418 0.162706-23.397896l-0.277316-15.696494 11.885701-13.025665c11.983939-10.273994 25.66145-31.40936 37.514405-57.981553l6.919597-15.533788 16.624632-3.517103c3.1262-0.650823 6.968715-1.905396 11.023054-3.582595 24.081465-9.948583 27.859511-26.752294 28.16855-39.257096-0.553609-3.793396-1.335415-5.210675-1.351787-5.227048l-16.120143-9.720386 2.37714-16.624632-0.032746-61.124126c0-5.959735-0.440022-11.885701-1.335415-18.74083l-0.456395-3.549849 0.292666-3.566222c3.435239-40.315194-5.568832-84.196611-29.4221-90.058109l-8.075933-1.986237-6.203282-5.552459c-7.783267-6.968715-12.292977-16.054651-13.302981-25.694195-11.739369-0.928139-26.865881-2.409886-40.625256-4.836145-14.002922-2.475378-21.313422-4.916986-28.804023-7.620561-6.089695-2.165316-10.127661-3.582595-22.24156-4.607948-37.677111-3.451612-57.427944 24.146956-64.233953 36.065404l-5.861498 10.273994-11.023054 4.282536c-25.335015 9.851369-39.370683 47.77305-38.508036 104.061031l0.032746 2.24718-0.276293 2.230808c-0.846274 7.05058-1.269923 13.05841-1.269923 18.903535l-0.24457 69.851904-16.168238 8.499581c0.146333 0.260943 0.016373 1.025353-0.162706 2.214435 0.309038 12.749372 4.103458 29.813003 28.29851 39.289841 4.607948 1.807159 9.590426 3.191692 14.052041 3.891633l19.685341 3.093455 6.594185 18.806321c7.571443 21.574365 20.841677 43.425022 33.802874 55.669904l10.453073 9.866718 0 41.308825c0 24.684192-14.702863 58.030671-55.978942 77.666894-39.257096 18.773576-79.995939 25.155936-115.947755 30.79026-30.432103 4.770653-59.187007 9.281387-83.382059 20.401656-14.328333 6.594185-21.037129 24.651446-24.130583 38.654368l-0.390903 1.693572C156.329465 731.032552 155.727761 736.699622 155.808602 743.293807z" p-id="2385" fill="#2c2c2c"></path></svg>